STARTFONT 2.1
FONT -Monotype-Plantin-Regular-R-Normal--33-240-100-100-P-176-iso8859-5
SIZE 24 100 100
FONTBOUNDINGBOX 38 37 -1 -8

STARTPROPERTIES 24
FOUNDRY "Monotype"
FAMILY_NAME "Plantin"
WEIGHT_NAME "Regular"
SLANT "R"
SETWIDTH_NAME "Normal"
ADD_STYLE_NAME ""
PIXEL_SIZE 33
POINT_SIZE 240
RESOLUTION_X 100
RESOLUTION_Y 100
SPACING "P"
AVERAGE_WIDTH 176
CHARSET_REGISTRY "iso8859"
CHARSET_ENCODING "5"
FACE_NAME "Plantin ISO Latin Cyrillic"
_DEC_DEVICE_FONTNAMES "PS=plantin-latcyrillic"
COPYRIGHT "Copyright (c) 1993 Monotype Typography Ltd."
CAP_HEIGHT 25
X_HEIGHT 16
WEIGHT 10
QUAD_WIDTH 23
DEFAULT_CHAR 160
FONT_DESCENT 8
FONT_ASCENT 29
ENDPROPERTIES

CHARS 191

STARTCHAR space
ENCODING 32
SWIDTH 250 0
DWIDTH 8 0
BBX 0 0 0 0
BITMAP
ENDCHAR

STARTCHAR exclam
ENCODING 33
SWIDTH 292 0
DWIDTH 10 0
BBX 4 23 3 0
BITMAP
F0
F0
F0
F0
F0
F0
60
60
60
60
60
60
60
60
60
60
20
00
00
60
F0
F0
60
ENDCHAR

STARTCHAR quotedbl
ENCODING 34
SWIDTH 406 0
DWIDTH 13 0
BBX 9 9 2 13
BITMAP
E380
E380
E380
E380
E380
C380
4100
4100
4100
ENDCHAR

STARTCHAR numbersign
ENCODING 35
SWIDTH 500 0
DWIDTH 17 0
BBX 15 22 1 0
BITMAP
060C
0408
0408
0408
0C18
0C10
0810
FFFE
0830
1830
1820
1020
1020
1020
FFFE
3040
2040
2040
20C0
60C0
6080
4080
ENDCHAR

STARTCHAR dollar
ENCODING 36
SWIDTH 552 0
DWIDTH 18 0
BBX 14 27 2 -4
BITMAP
0880
1FC0
38F0
68B8
C8B8
C898
C880
E880
F880
7C80
3F80
1FE0
0FF0
08F8
08BC
089C
088C
488C
E88C
E898
F898
78F0
1FC0
0880
0880
0880
0880
ENDCHAR

STARTCHAR percent
ENCODING 37
SWIDTH 875 0
DWIDTH 29 0
BBX 26 24 1 -1
BITMAP
1C000800
63001000
63803000
C1802000
C1806000
C180C000
C1808000
C1818000
C1830000
63020000
63060000
1C040000
000C0E00
00183180
001031C0
003060C0
006060C0
004060C0
00C060C0
018060C0
010060C0
03003180
06003180
06000E00
ENDCHAR

STARTCHAR ampersand
ENCODING 38
SWIDTH 750 0
DWIDTH 25 0
BBX 23 23 1 0
BITMAP
00E000
01F800
061C00
0C1C00
0C0C00
0E0C00
0E1800
0F3000
07E000
03E0FE
07F078
0CF030
387820
703C60
603E40
E01EC0
E00F00
F00F80
F00780
F807C0
7E1BF0
3FF1FE
0FE07C
ENDCHAR

STARTCHAR quoteright
ENCODING 39
SWIDTH 292 0
DWIDTH 10 0
BBX 5 9 3 14
BITMAP
E0
F0
F8
F8
18
18
30
60
C0
ENDCHAR

STARTCHAR parenleft
ENCODING 40
SWIDTH 385 0
DWIDTH 13 0
BBX 9 29 3 -6
BITMAP
0100
0380
0700
0E00
1C00
1800
3000
7000
6000
6000
E000
C000
C000
C000
C000
C000
C000
C000
C000
6000
6000
6000
3000
3800
1800
0C00
0600
0380
0180
ENDCHAR

STARTCHAR parenright
ENCODING 41
SWIDTH 385 0
DWIDTH 13 0
BBX 9 29 1 -6
BITMAP
4000
E000
3000
1800
0C00
0600
0600
0300
0300
0300
0180
0180
0180
0180
0180
0180
0180
0180
0180
0300
0300
0700
0600
0E00
1C00
1800
7000
E000
4000
ENDCHAR

STARTCHAR asterisk
ENCODING 42
SWIDTH 500 0
DWIDTH 17 0
BBX 14 14 1 10
BITMAP
0200
0300
0300
0300
073C
FFF8
7FF0
1F80
07C0
0FC0
0EE0
1860
3030
1010
ENDCHAR

STARTCHAR plus
ENCODING 43
SWIDTH 667 0
DWIDTH 22 0
BBX 17 17 2 2
BITMAP
01C000
01C000
01C000
01C000
01C000
01C000
01C000
FFFF80
FFFF80
FFFF80
01C000
01C000
01C000
01C000
01C000
01C000
01C000
ENDCHAR

STARTCHAR comma
ENCODING 44
SWIDTH 292 0
DWIDTH 10 0
BBX 7 10 1 -5
BITMAP
3C
7C
3E
1E
06
06
06
0C
38
E0
ENDCHAR

STARTCHAR minus
ENCODING 45
SWIDTH 667 0
DWIDTH 22 0
BBX 18 3 2 9
BITMAP
FFFFC0
FFFFC0
FFFFC0
ENDCHAR

STARTCHAR period
ENCODING 46
SWIDTH 292 0
DWIDTH 10 0
BBX 4 4 3 0
BITMAP
60
F0
F0
60
ENDCHAR

STARTCHAR slash
ENCODING 47
SWIDTH 281 0
DWIDTH 9 0
BBX 9 23 0 0
BITMAP
0080
0180
0100
0100
0300
0200
0200
0600
0400
0400
0C00
0800
0800
1800
1000
1000
3000
2000
2000
6000
4000
4000
C000
ENDCHAR

STARTCHAR zero
ENCODING 48
SWIDTH 552 0
DWIDTH 18 0
BBX 15 22 2 0
BITMAP
07C0
0C70
1838
3038
701C
701C
601E
E00E
E00E
E00E
E00E
E00E
E00E
E00E
E00E
700C
700C
701C
3818
1830
1C60
07C0
ENDCHAR

STARTCHAR one
ENCODING 49
SWIDTH 552 0
DWIDTH 18 0
BBX 9 22 5 0
BITMAP
0400
3C00
FC00
3C00
1C00
1C00
1C00
1C00
1C00
1C00
1C00
1C00
1C00
1C00
1C00
1C00
1C00
1C00
1C00
1C00
3E00
FF80
ENDCHAR

STARTCHAR two
ENCODING 50
SWIDTH 552 0
DWIDTH 18 0
BBX 15 22 2 0
BITMAP
07E0
1FF0
3CF8
303C
601C
401C
C01C
001C
001C
0038
0070
0060
00C0
0180
0300
0600
0C02
1806
300C
7FFC
FFFC
FFFC
ENDCHAR

STARTCHAR three
ENCODING 51
SWIDTH 552 0
DWIDTH 18 0
BBX 15 22 1 0
BITMAP
07E0
1FF0
3878
7038
C038
4038
0030
0060
0080
03F0
07F8
0C3C
001E
000E
000E
000E
000E
001C
001C
0078
E1E0
3F80
ENDCHAR

STARTCHAR four
ENCODING 52
SWIDTH 552 0
DWIDTH 18 0
BBX 15 22 1 0
BITMAP
0070
00F0
00F0
01B0
0370
0270
0670
0C70
0870
1070
3070
2070
4072
8072
FFFE
FFFE
0070
0070
0070
0070
00F8
03FE
ENDCHAR

STARTCHAR five
ENCODING 53
SWIDTH 552 0
DWIDTH 18 0
BBX 14 22 2 0
BITMAP
1FFC
1FFC
3FFC
2000
2000
2000
2F80
7FE0
7FF0
60F8
0038
003C
001C
001C
001C
001C
001C
0038
0078
00F0
83E0
FF80
ENDCHAR

STARTCHAR six
ENCODING 54
SWIDTH 552 0
DWIDTH 18 0
BBX 14 22 2 0
BITMAP
0070
01E0
0700
0C00
1800
3800
7000
73C0
6FF0
F878
F038
E03C
E01C
E01C
E01C
E01C
701C
7018
7038
3830
1C60
07C0
ENDCHAR

STARTCHAR seven
ENCODING 55
SWIDTH 552 0
DWIDTH 18 0
BBX 14 22 2 0
BITMAP
7FFC
7FFC
FFFC
C008
8018
8030
0030
0060
0060
00C0
00C0
00C0
0180
0180
0380
0380
0300
0700
0700
0700
0700
0700
ENDCHAR

STARTCHAR eight
ENCODING 56
SWIDTH 552 0
DWIDTH 18 0
BBX 15 22 1 0
BITMAP
07E0
1C78
301C
301C
700C
700C
780C
7C18
3F30
1FE0
07F0
1DF8
387C
701C
600E
E00E
E006
E006
700E
700C
3C38
0FE0
ENDCHAR

STARTCHAR nine
ENCODING 57
SWIDTH 552 0
DWIDTH 18 0
BBX 14 22 2 0
BITMAP
0F80
18E0
3070
7038
6038
E01C
E01C
E01C
E01C
E01C
F01C
703C
787C
3FD8
0F38
0038
0070
0060
00C0
0380
1E00
3000
ENDCHAR

STARTCHAR colon
ENCODING 58
SWIDTH 292 0
DWIDTH 10 0
BBX 4 15 3 0
BITMAP
60
F0
F0
60
00
00
00
00
00
00
00
60
F0
F0
60
ENDCHAR

STARTCHAR semicolon
ENCODING 59
SWIDTH 292 0
DWIDTH 10 0
BBX 7 20 1 -5
BITMAP
18
3C
3C
18
00
00
00
00
00
00
38
7C
3E
3E
06
06
06
0C
18
F0
ENDCHAR

STARTCHAR less
ENCODING 60
SWIDTH 667 0
DWIDTH 22 0
BBX 18 17 2 2
BITMAP
0000C0
0007C0
001FC0
007E00
03F800
0FC000
3F0000
F80000
F00000
FE0000
1F8000
07F000
00FC00
003F00
000FC0
0001C0
000040
ENDCHAR

STARTCHAR equal
ENCODING 61
SWIDTH 667 0
DWIDTH 22 0
BBX 18 11 2 5
BITMAP
FFFFC0
FFFFC0
FFFFC0
000000
000000
000000
000000
000000
FFFFC0
FFFFC0
FFFFC0
ENDCHAR

STARTCHAR greater
ENCODING 62
SWIDTH 667 0
DWIDTH 22 0
BBX 18 17 2 2
BITMAP
C00000
F80000
FE0000
1F8000
07F000
00FC00
003F00
0007C0
0003C0
001FC0
007E00
03F800
0FC000
7F0000
FC0000
E00000
800000
ENDCHAR

STARTCHAR question
ENCODING 63
SWIDTH 385 0
DWIDTH 13 0
BBX 10 23 1 0
BITMAP
7800
FC00
FE00
0300
0180
0080
00C0
00C0
00C0
01C0
03C0
3F80
3F00
3E00
3000
3000
3000
0000
0000
3000
7800
7800
3000
ENDCHAR

STARTCHAR at
ENCODING 64
SWIDTH 917 0
DWIDTH 30 0
BBX 28 30 1 -7
BITMAP
000FF000
00700C00
01800200
03000100
06000080
0C000040
18000040
30039820
300C5820
60183820
60303820
40703020
40603020
C0C07020
C0C06060
C1C06040
C180E040
C1816080
4182C180
41C4C300
61F8C610
60F0F830
20000020
10000060
180000C0
0C000180
06000300
03000600
00E03800
001FC000
ENDCHAR

STARTCHAR A
ENCODING 65
SWIDTH 719 0
DWIDTH 24 0
BBX 24 23 0 0
BITMAP
007800
003C00
007C00
006C00
005E00
00CE00
008F00
018700
018780
010780
030380
0203C0
07FFC0
07FFE0
0401E0
0C00F0
0C00F0
180070
180078
180078
3C007C
FE01FE
FF03FF
ENDCHAR

STARTCHAR B
ENCODING 66
SWIDTH 688 0
DWIDTH 23 0
BBX 20 23 1 0
BITMAP
FFFF00
3E0FC0
1E03C0
0E01E0
0E01E0
0E01E0
0E01E0
0E01C0
0E03C0
0E0F00
0FF800
0E0F80
0E03C0
0E01E0
0E00F0
0E00F0
0E00F0
0E00F0
0E00F0
0E00E0
1F01E0
3F87C0
FFFF00
ENDCHAR

STARTCHAR C
ENCODING 67
SWIDTH 781 0
DWIDTH 26 0
BBX 22 23 2 0
BITMAP
00FFC0
03C1F8
0F0078
1E0038
3C0018
380008
78000C
780000
F00000
F00000
F00000
F00000
F00000
F00000
F00000
780000
78000C
3C000C
3C000C
1E001C
0F803C
03E0F8
00FFC0
ENDCHAR

STARTCHAR D
ENCODING 68
SWIDTH 844 0
DWIDTH 28 0
BBX 25 23 1 0
BITMAP
FFFF8000
3E03F000
1E00F800
0E007C00
0E003E00
0E001F00
0E000F00
0E000F80
0E000F80
0E000780
0E000780
0E000780
0E000780
0E000780
0E000780
0E000700
0E000F00
0E000E00
0E001E00
0E003C00
1F007800
3F83E000
FFFF8000
ENDCHAR

STARTCHAR E
ENCODING 69
SWIDTH 677 0
DWIDTH 22 0
BBX 21 23 1 0
BITMAP
FFFFE0
3E01E0
1E0060
0E0060
0E0020
0E0000
0E0000
0E0080
0E0080
0E0180
0E0380
0FFF80
0E0380
0E0180
0E0080
0E0080
0E0000
0E0000
0E0018
0E0038
1F0070
3F81F0
FFFFF0
ENDCHAR

STARTCHAR F
ENCODING 70
SWIDTH 656 0
DWIDTH 22 0
BBX 20 23 1 0
BITMAP
FFFFF0
3E00F0
1E0030
0E0030
0E0010
0E0000
0E0000
0E00C0
0E00C0
0E03C0
0FFFC0
0E03C0
0E01C0
0E00C0
0E00C0
0E0000
0E0000
0E0000
0E0000
0E0000
1F0000
3F8000
FFE000
ENDCHAR

STARTCHAR G
ENCODING 71
SWIDTH 833 0
DWIDTH 27 0
BBX 26 23 2 0
BITMAP
007FF000
01E0FC00
07803C00
0E001C00
1C000C00
3C000400
78000000
78000000
F0000000
F0000000
F0000000
F001FFC0
F0003F00
F0001E00
F8001E00
78001E00
78001E00
3C001E00
3E001E00
1F001E00
0F801E00
03E0FE00
00FFE000
ENDCHAR

STARTCHAR H
ENCODING 72
SWIDTH 854 0
DWIDTH 28 0
BBX 27 23 1 0
BITMAP
FFE0FFE0
3F803F80
1F001F00
0E000E00
0E000E00
0E000E00
0E000E00
0E000E00
0E000E00
0E000E00
0FFFFE00
0FFFFE00
0E000E00
0E000E00
0E000E00
0E000E00
0E000E00
0E000E00
0E000E00
0E000E00
1F001F00
3F803F80
FFE0FFE0
ENDCHAR

STARTCHAR I
ENCODING 73
SWIDTH 375 0
DWIDTH 12 0
BBX 11 23 1 0
BITMAP
FFE0
3F80
1F00
0E00
0E00
0E00
0E00
0E00
0E00
0E00
0E00
0E00
0E00
0E00
0E00
0E00
0E00
0E00
0E00
0E00
1F00
3F80
FFE0
ENDCHAR

STARTCHAR J
ENCODING 74
SWIDTH 354 0
DWIDTH 12 0
BBX 13 28 -1 -5
BITMAP
3FF8
0FE0
07C0
0380
0380
0380
0380
0380
0380
0380
0380
0380
0380
0380
0380
0380
0380
0380
0380
0380
0380
0380
0380
0380
4300
E300
F600
7C00
ENDCHAR

STARTCHAR K
ENCODING 75
SWIDTH 802 0
DWIDTH 26 0
BBX 26 23 1 0
BITMAP
FFE3FF00
3F80FC00
1F00F000
0E00E000
0E01C000
0E038000
0E070000
0E0C0000
0E180000
0E300000
0FF00000
0EF80000
0E7C0000
0E3E0000
0E1F0000
0E0F8000
0E07C000
0E03E000
0E01F800
0E00FC00
1F007E00
3F801F80
FFE00FC0
ENDCHAR

STARTCHAR L
ENCODING 76
SWIDTH 677 0
DWIDTH 22 0
BBX 22 23 1 0
BITMAP
FFE000
3F8000
1F0000
0E0000
0E0000
0E0000
0E0000
0E0000
0E0000
0E0000
0E0000
0E0000
0E0000
0E0000
0E0000
0E0000
0E0000
0E0004
0E000C
0F000C
1F001C
3FC0F8
FFFFF8
ENDCHAR

STARTCHAR M
ENCODING 77
SWIDTH 1010 0
DWIDTH 33 0
BBX 32 23 1 0
BITMAP
1F8001FC
0F8001F0
07C001E0
07C001E0
06C003E0
05E002E0
05E002E0
04E006E0
04F004F0
0C700CF0
0C7808F0
0C3818F0
083C1870
083C3070
081E2070
181E6078
180F6078
180FC078
1807C078
18078078
3803807C
7C0300FE
FF0303FF
ENDCHAR

STARTCHAR N
ENCODING 78
SWIDTH 844 0
DWIDTH 28 0
BBX 27 23 0 0
BITMAP
FC003FE0
3E000F80
1F000700
0F800300
07C00300
07E00300
05F00300
04F80300
047C0300
043E0300
041F0300
040F8300
0407C300
0407C300
0403E300
0401F300
0400FB00
04007F00
04003F00
06001F00
0E000F00
1F000700
7FC00380
ENDCHAR

STARTCHAR O
ENCODING 79
SWIDTH 812 0
DWIDTH 27 0
BBX 23 23 2 0
BITMAP
01FF00
0787C0
0E01E0
1C00F0
380078
38007C
70003C
70003C
F0001E
F0001E
F0001E
F0001E
F0001E
F0001E
F8001E
78001C
78001C
7C0038
3C0038
1E0070
0F00E0
07C380
01FE00
ENDCHAR

STARTCHAR P
ENCODING 80
SWIDTH 635 0
DWIDTH 21 0
BBX 19 23 1 0
BITMAP
FFFE00
3E0F80
1E03C0
0E03C0
0E01E0
0E01E0
0E01E0
0E01E0
0E01E0
0E03C0
0E0780
0E7F00
0E7C00
0E0000
0E0000
0E0000
0E0000
0E0000
0E0000
0E0000
1F0000
3F8000
FFE000
ENDCHAR

STARTCHAR Q
ENCODING 81
SWIDTH 812 0
DWIDTH 27 0
BBX 24 29 2 -6
BITMAP
01FF00
0787C0
0E01E0
1C00F0
380078
38007C
70003C
70003C
F0001E
F0001E
F0001E
F0001E
F0001E
F0001E
F8001E
78001C
78001C
3C0038
3C0038
1E0070
0F00E0
03C380
00FE00
003E00
001FC0
0007F8
0001FF
00007F
000007
ENDCHAR

STARTCHAR R
ENCODING 82
SWIDTH 719 0
DWIDTH 24 0
BBX 24 23 1 0
BITMAP
FFFF00
3E0FC0
1E03E0
0E01F0
0E00F0
0E00F0
0E00F0
0E00F0
0E01E0
0E01E0
0E0780
0FFE00
0E3C00
0E1E00
0E0F00
0E0F80
0E07C0
0E03E0
0E01F0
0E00F8
1F007C
3F803E
FFE01F
ENDCHAR

STARTCHAR S
ENCODING 83
SWIDTH 594 0
DWIDTH 20 0
BBX 16 23 1 0
BITMAP
07F8
1E1E
380E
7006
7002
7802
7800
7E00
3F00
1FC0
0FF0
03F8
00FC
007E
001F
000F
C007
C007
E007
F00E
F81E
7FF8
07E0
ENDCHAR

STARTCHAR T
ENCODING 84
SWIDTH 760 0
DWIDTH 25 0
BBX 25 23 0 0
BITMAP
7FFFFF00
781C0F00
601C0300
E01C0180
C01C0180
001C0000
001C0000
001C0000
001C0000
001C0000
001C0000
001C0000
001C0000
001C0000
001C0000
001C0000
001C0000
001C0000
001C0000
001C0000
003E0000
007F0000
01FFC000
ENDCHAR

STARTCHAR U
ENCODING 85
SWIDTH 833 0
DWIDTH 27 0
BBX 26 23 1 0
BITMAP
FFE07FC0
3F800F00
1F000600
0E000600
0E000600
0E000600
0E000600
0E000600
0E000600
0E000600
0E000600
0E000600
0E000600
0E000600
0E000600
0E000600
0E000600
0F000C00
0F000C00
07801800
03E07800
01FFE000
007F8000
ENDCHAR

STARTCHAR V
ENCODING 86
SWIDTH 708 0
DWIDTH 23 0
BBX 23 23 0 0
BITMAP
FF80FE
7F80FE
3E0038
1E0038
1E0030
0E0030
0F0020
0F0060
078060
078040
03C0C0
03C080
01E180
01E100
00F300
00F300
007A00
007E00
003C00
003C00
001C00
001800
001800
ENDCHAR

STARTCHAR W
ENCODING 87
SWIDTH 1000 0
DWIDTH 33 0
BBX 33 23 0 0
BITMAP
FF3F9F9F80
7F3F9F9F80
3E0F0E0F00
1E0F060600
1E070C0400
0E078C0C00
0F03980C00
0F03D00800
0783F01800
0781E01000
03C1E03000
03C0F02000
01C0F06000
01E0F84000
00E1B8C000
00F13CC000
00733C8000
007A1F8000
007E1F0000
003C0F0000
003C0E0000
0018060000
0018060000
ENDCHAR

STARTCHAR X
ENCODING 88
SWIDTH 781 0
DWIDTH 26 0
BBX 26 23 0 0
BITMAP
FFE0FF00
7FE0FF00
1F803800
0F803000
07C06000
03C04000
01E0C000
00F18000
00FB0000
007C0000
003E0000
001E0000
001F0000
00378000
0067C000
00C3E000
0181F000
0300F000
06007800
0E007C00
1E007E00
7F80FF80
7FC1FFC0
ENDCHAR

STARTCHAR Y
ENCODING 89
SWIDTH 719 0
DWIDTH 24 0
BBX 23 23 0 0
BITMAP
FFC1FE
FF80FE
3E0078
1E0070
0F0060
0F8060
0780C0
03C180
03E180
01E300
00F600
00FE00
007C00
003800
003800
003800
003800
003800
003800
003800
007C00
00FE00
03FF80
ENDCHAR

STARTCHAR Z
ENCODING 90
SWIDTH 677 0
DWIDTH 22 0
BBX 20 23 1 0
BITMAP
7FFFE0
7C01E0
7003C0
700780
600F80
000F00
001E00
003E00
003C00
007800
00F000
01F000
01E000
03C000
07C000
078000
0F0000
1E0010
3E0030
3C0070
7800E0
F003E0
FFFFE0
ENDCHAR

STARTCHAR bracketleft
ENCODING 91
SWIDTH 375 0
DWIDTH 12 0
BBX 7 29 5 -6
BITMAP
FE
F0
E0
E0
E0
E0
E0
E0
E0
E0
E0
E0
E0
E0
E0
E0
E0
E0
E0
E0
E0
E0
E0
E0
E0
E0
E0
F0
FE
ENDCHAR

STARTCHAR backslash
ENCODING 92
SWIDTH 281 0
DWIDTH 9 0
BBX 9 23 0 0
BITMAP
C000
4000
4000
6000
2000
2000
3000
1000
1000
1800
0800
0800
0C00
0400
0400
0600
0200
0200
0300
0100
0100
0180
0080
ENDCHAR

STARTCHAR bracketright
ENCODING 93
SWIDTH 375 0
DWIDTH 12 0
BBX 7 29 1 -6
BITMAP
FE
1E
0E
0E
0E
0E
0E
0E
0E
0E
0E
0E
0E
0E
0E
0E
0E
0E
0E
0E
0E
0E
0E
0E
0E
0E
0E
1E
FE
ENDCHAR

STARTCHAR asciicircum
ENCODING 94
SWIDTH 469 0
DWIDTH 15 0
BBX 14 11 1 11
BITMAP
0300
0700
0580
0C80
08C0
1860
3020
2030
6010
4018
C00C
ENDCHAR

STARTCHAR underscore
ENCODING 95
SWIDTH 500 0
DWIDTH 17 0
BBX 17 1 0 -6
BITMAP
FFFF80
ENDCHAR

STARTCHAR quoteleft
ENCODING 96
SWIDTH 292 0
DWIDTH 10 0
BBX 6 9 3 14
BITMAP
1C
30
60
C0
C0
F8
F8
78
30
ENDCHAR

STARTCHAR a
ENCODING 97
SWIDTH 479 0
DWIDTH 16 0
BBX 14 15 1 0
BITMAP
1FC0
30E0
6070
7070
7070
2070
01F0
0F70
3C70
7070
E070
E070
F1F4
7F7C
3C38
ENDCHAR

STARTCHAR b
ENCODING 98
SWIDTH 562 0
DWIDTH 19 0
BBX 17 23 0 0
BITMAP
180000
780000
F80000
380000
380000
380000
380000
380000
38F800
3BFE00
3E1F00
380F00
380780
380380
380380
380380
380380
380380
380300
380700
3C0600
3F1C00
0FF000
ENDCHAR

STARTCHAR c
ENCODING 99
SWIDTH 469 0
DWIDTH 15 0
BBX 13 15 1 0
BITMAP
0FF0
1C78
3038
7018
6000
E000
E000
E000
E000
F000
7008
7C18
3FF0
1FE0
0780
ENDCHAR

STARTCHAR d
ENCODING 100
SWIDTH 573 0
DWIDTH 19 0
BBX 17 23 1 0
BITMAP
000600
003E00
003E00
000E00
000E00
000E00
000E00
000E00
07FE00
1C7E00
381E00
301E00
600E00
600E00
E00E00
E00E00
E00E00
F00E00
700E00
780E00
3C3E00
3FEF80
0F8F00
ENDCHAR

STARTCHAR e
ENCODING 101
SWIDTH 469 0
DWIDTH 15 0
BBX 13 15 1 0
BITMAP
0FC0
18E0
3070
2038
6038
7FF8
6000
E000
6000
7000
7000
7C08
3FF8
1FE0
0780
ENDCHAR

STARTCHAR f
ENCODING 102
SWIDTH 312 0
DWIDTH 10 0
BBX 13 23 0 0
BITMAP
03F0
0678
0C38
0C10
1C00
1C00
1C00
1C00
FFC0
1C00
1C00
1C00
1C00
1C00
1C00
1C00
1C00
1C00
1C00
1C00
1C00
3E00
FF80
ENDCHAR

STARTCHAR g
ENCODING 103
SWIDTH 500 0
DWIDTH 17 0
BBX 16 21 1 -6
BITMAP
0FE0
3CFF
3877
7038
7038
7038
7038
3830
1CE0
0FC0
1000
3000
7FF8
5FFC
3FFE
600E
C006
C006
E01C
7FF0
1F80
ENDCHAR

STARTCHAR h
ENCODING 104
SWIDTH 562 0
DWIDTH 19 0
BBX 17 23 1 0
BITMAP
180000
F80000
F80000
380000
380000
380000
380000
380000
39F800
3BFC00
3E1E00
380E00
380E00
380E00
380E00
380E00
380E00
380E00
380E00
380E00
380E00
7C1F00
FF3F80
ENDCHAR

STARTCHAR i
ENCODING 105
SWIDTH 271 0
DWIDTH 9 0
BBX 7 23 1 0
BITMAP
38
38
38
10
00
00
00
00
18
F8
F8
38
38
38
38
38
38
38
38
38
38
7C
FE
ENDCHAR

STARTCHAR j
ENCODING 106
SWIDTH 260 0
DWIDTH 9 0
BBX 6 30 0 -7
BITMAP
1C
1C
1C
08
00
00
00
00
0C
7C
7C
3C
1C
1C
1C
1C
1C
1C
1C
1C
1C
1C
1C
1C
18
38
30
60
C0
40
ENDCHAR

STARTCHAR k
ENCODING 107
SWIDTH 510 0
DWIDTH 17 0
BBX 16 23 1 0
BITMAP
3800
F800
7800
3800
3800
3800
3800
3800
39FE
387C
3870
3860
38C0
3980
3B00
3B80
3BC0
39E0
38F0
387C
383E
7C1F
FE0F
ENDCHAR

STARTCHAR l
ENCODING 108
SWIDTH 271 0
DWIDTH 9 0
BBX 7 23 1 0
BITMAP
18
F8
F8
38
38
38
38
38
38
38
38
38
38
38
38
38
38
38
38
38
38
7C
FE
ENDCHAR

STARTCHAR m
ENCODING 109
SWIDTH 865 0
DWIDTH 29 0
BBX 27 15 1 0
BITMAP
19F87E00
FBFCFF00
FE1F8780
380E0380
380E0380
380E0380
380E0380
380E0380
380E0380
380E0380
380E0380
380E0380
380E0380
7C1F07C0
FE7F8FE0
ENDCHAR

STARTCHAR n
ENCODING 110
SWIDTH 573 0
DWIDTH 19 0
BBX 17 15 1 0
BITMAP
19F800
FBFC00
FA1C00
3C0E00
380E00
380E00
380E00
380E00
380E00
380E00
380E00
380E00
380E00
7C1F00
FF3F80
ENDCHAR

STARTCHAR o
ENCODING 111
SWIDTH 542 0
DWIDTH 18 0
BBX 15 15 1 0
BITMAP
0FE0
1870
3038
701C
E01E
E00E
E00E
E00E
E00E
F00E
700C
700C
3818
1C30
07C0
ENDCHAR

STARTCHAR p
ENCODING 112
SWIDTH 562 0
DWIDTH 19 0
BBX 16 21 1 -6
BITMAP
19F8
FBFC
FE3E
380E
380F
3807
3807
3807
3807
3807
3806
380E
3C0C
3E38
3BE0
3800
3800
3800
3800
7C00
FF00
ENDCHAR

STARTCHAR q
ENCODING 113
SWIDTH 562 0
DWIDTH 19 0
BBX 17 21 1 -6
BITMAP
07F200
1C3E00
301E00
700E00
600E00
E00E00
E00E00
E00E00
E00E00
E00E00
700E00
780E00
7C3E00
3FEE00
0F8E00
000E00
000E00
000E00
000E00
001F00
007F80
ENDCHAR

STARTCHAR r
ENCODING 114
SWIDTH 375 0
DWIDTH 12 0
BBX 11 15 1 0
BITMAP
19E0
7BE0
FEE0
7C60
3800
3800
3800
3800
3800
3800
3800
3800
3800
7C00
FF00
ENDCHAR

STARTCHAR s
ENCODING 115
SWIDTH 396 0
DWIDTH 13 0
BBX 10 15 2 0
BITMAP
3F00
6380
C180
C080
E080
F000
7E00
3F00
0FC0
03C0
C0C0
C0C0
C0C0
E180
7F00
ENDCHAR

STARTCHAR t
ENCODING 116
SWIDTH 333 0
DWIDTH 11 0
BBX 10 17 1 0
BITMAP
1800
3800
FF80
FF80
3800
3800
3800
3800
3800
3800
3800
3800
3800
3800
3800
3FC0
1F80
ENDCHAR

STARTCHAR u
ENCODING 117
SWIDTH 573 0
DWIDTH 19 0
BBX 17 15 1 0
BITMAP
F87E00
F87E00
380E00
380E00
380E00
380E00
380E00
380E00
380E00
380E00
380E00
380E00
3C3E00
1FEF80
0F8F00
ENDCHAR

STARTCHAR v
ENCODING 118
SWIDTH 479 0
DWIDTH 16 0
BBX 16 15 0 0
BITMAP
FE3F
7C1E
380C
380C
1C08
1C18
0E10
0E30
0720
0760
0740
03C0
0380
0180
0100
ENDCHAR

STARTCHAR w
ENCODING 119
SWIDTH 729 0
DWIDTH 24 0
BBX 23 15 1 0
BITMAP
FCFE3E
783C1C
703C08
381C08
381C18
1C3C10
1C2E30
1C6E20
0E4720
0E4740
078340
0783C0
038380
030180
030100
ENDCHAR

STARTCHAR x
ENCODING 120
SWIDTH 500 0
DWIDTH 17 0
BBX 16 15 1 0
BITMAP
FE7E
7C3E
3818
1C30
1E60
0FC0
0780
03C0
03C0
04E0
0870
1878
303C
F87E
FCFF
ENDCHAR

STARTCHAR y
ENCODING 121
SWIDTH 479 0
DWIDTH 16 0
BBX 16 21 0 -6
BITMAP
FE3F
3C0E
380C
1C0C
1C08
0E18
0E10
0E10
0730
0720
03E0
03C0
01C0
01C0
0080
0080
0100
0100
7300
7E00
3C00
ENDCHAR

STARTCHAR z
ENCODING 122
SWIDTH 437 0
DWIDTH 14 0
BBX 13 16 1 0
BITMAP
C000
FFF8
E070
C0F0
01E0
01C0
0380
0780
0700
0E00
1E00
3C08
3818
7038
E070
FFF0
ENDCHAR

STARTCHAR braceleft
ENCODING 123
SWIDTH 479 0
DWIDTH 16 0
BBX 9 30 3 -7
BITMAP
0180
0600
0C00
0800
1800
1800
1C00
1C00
1C00
0C00
0C00
0C00
0800
1000
E000
6000
1000
0800
0C00
0C00
1C00
1C00
1C00
1C00
1800
1800
0800
0C00
0600
0180
ENDCHAR

STARTCHAR bar
ENCODING 124
SWIDTH 198 0
DWIDTH 7 0
BBX 1 30 3 -7
BITMAP
80
80
80
80
80
80
80
80
80
80
80
80
80
80
80
80
80
80
80
80
80
80
80
80
80
80
80
80
80
80
ENDCHAR

STARTCHAR braceright
ENCODING 125
SWIDTH 479 0
DWIDTH 16 0
BBX 9 30 3 -7
BITMAP
C000
3000
1800
0800
0C00
0C00
1C00
1C00
1C00
1C00
1800
1800
0800
0400
0300
0380
0400
0800
1800
1800
1800
1C00
1C00
0C00
0C00
0C00
0800
1800
3000
C000
ENDCHAR

STARTCHAR asciitilde
ENCODING 126
SWIDTH 542 0
DWIDTH 18 0
BBX 16 5 1 8
BITMAP
3E01
7F81
C7E2
81FE
807C
ENDCHAR

STARTCHAR space
ENCODING 160
SWIDTH 250 0
DWIDTH 9 0
BBX 0 0 0 0
BITMAP
ENDCHAR

STARTCHAR afii10023
ENCODING 161
SWIDTH 677 0
DWIDTH 22 0
BBX 21 28 0 0
BITMAP
030300
078780
078780
030300
000000
FFFFF0
3E01F0
1E0070
0E0030
0E0030
0E0000
0E0000
0E00C0
0E00C0
0E00C0
0E03C0
0FFFC0
0E03C0
0E00C0
0E00C0
0E00C0
0E0000
0E0000
0E0018
0E0018
1F0038
3FC1F0
FFFFF0
ENDCHAR

STARTCHAR afii10051
ENCODING 162
SWIDTH 823 0
DWIDTH 27 0
BBX 25 23 1 0
BITMAP
FFFFE000
F0E1E000
E0E0E000
C0E06000
80E02000
00E00000
00E00000
00E00000
00E00000
00E00000
00E3F800
00EFFE00
00FC3F00
00F00F00
00E00F80
00E00780
00E00780
00E00780
00E00780
00E08700
01F1C700
03F9EE00
07FCF800
ENDCHAR

STARTCHAR afii10052
ENCODING 163
SWIDTH 635 0
DWIDTH 21 0
BBX 20 29 1 0
BITMAP
007C00
00F000
01E000
038000
000000
000000
FFFFE0
3F83E0
1F00E0
0E0060
0E0070
0E0030
0E0000
0E0000
0E0000
0E0000
0E0000
0E0000
0E0000
0E0000
0E0000
0E0000
0E0000
0E0000
0E0000
0E0000
1F0000
3F8000
FFE000
ENDCHAR

STARTCHAR afii10053
ENCODING 164
SWIDTH 729 0
DWIDTH 24 0
BBX 22 23 2 0
BITMAP
00FFC0
03C1F0
0F0078
1E0038
3C0018
780008
780008
F00000
F00000
F00000
F00000
FFFE00
F00000
F00000
F00000
F00000
F80000
780018
3C003C
3E0078
0F00F8
07C3F0
00FFC0
ENDCHAR

STARTCHAR afii10054
ENCODING 165
SWIDTH 594 0
DWIDTH 20 0
BBX 16 23 1 0
BITMAP
07F8
1E1E
380E
7006
7002
7802
7800
7E00
3F00
1FC0
0FF0
03F8
00FC
007E
001F
000F
C007
C007
E007
F00E
F81E
7FF8
07E0
ENDCHAR

STARTCHAR afii10055
ENCODING 166
SWIDTH 375 0
DWIDTH 12 0
BBX 11 23 1 0
BITMAP
FFE0
3F80
1F00
0E00
0E00
0E00
0E00
0E00
0E00
0E00
0E00
0E00
0E00
0E00
0E00
0E00
0E00
0E00
0E00
0E00
1F00
3F80
FFE0
ENDCHAR

STARTCHAR afii10056
ENCODING 167
SWIDTH 375 0
DWIDTH 12 0
BBX 12 29 0 0
BITMAP
6060
F0F0
F0F0
6060
0000
0000
7FE0
1F80
0F00
0700
0700
0700
0700
0700
0700
0700
0700
0700
0700
0700
0700
0700
0700
0700
0700
0700
0F00
1F80
7FE0
ENDCHAR

STARTCHAR afii10057
ENCODING 168
SWIDTH 354 0
DWIDTH 12 0
BBX 13 28 -1 -5
BITMAP
3FF8
0FE0
07C0
0380
0380
0380
0380
0380
0380
0380
0380
0380
0380
0380
0380
0380
0380
0380
0380
0380
0380
0380
0380
0380
4300
E300
F600
7C00
ENDCHAR

STARTCHAR afii10058
ENCODING 169
SWIDTH 986 0
DWIDTH 33 0
BBX 32 23 0 0
BITMAP
07FFFF00
03E1FC00
00C0F800
00807000
00807000
00807000
00807000
00807000
00807000
00807000
00807000
00807FF0
0080707C
0080701E
0080701E
0080700F
0180700F
0180700F
0100700F
4100701F
F300F81E
FE07FC7C
7C07FFF0
ENDCHAR

STARTCHAR afii10059
ENCODING 170
SWIDTH 1015 0
DWIDTH 33 0
BBX 32 23 1 0
BITMAP
FFC7FE00
7FC3FC00
1F01F000
0E00E000
0E00E000
0E00E000
0E00E000
0E00E000
0E00E000
0E00E000
0E00E000
0FFFFFF0
0E00E07C
0E00E01E
0E00E01E
0E00E00F
0E00E00F
0E00E00F
0E00E00F
0E00E01F
1F01F01E
3F03F87C
FFC7FFF0
ENDCHAR

STARTCHAR afii10060
ENCODING 171
SWIDTH 823 0
DWIDTH 27 0
BBX 26 23 1 0
BITMAP
FFFFE000
F0E1E000
E0E0E000
C0E06000
80E02000
00E00000
00E00000
00E00000
00E00000
00E00000
00E3F000
00EFF800
00EC7C00
00F03C00
00E01C00
00E01C00
00E01C00
00E01C00
00E01C00
00E01C00
01F03E00
03F87F00
07FCFFC0
ENDCHAR

STARTCHAR afii10061
ENCODING 172
SWIDTH 750 0
DWIDTH 25 0
BBX 24 29 1 0
BITMAP
003F00
003C00
007800
00E000
00C000
000000
FFE03C
3F807E
1F00FE
0E0088
0E0180
0E0100
0E0100
0E0300
0E0300
0E0200
0E0E00
0FFC00
0E1E00
0E0F00
0E0780
0E0780
0E03C0
0E01E0
0E00F0
0E00F0
1F0078
3F803C
FFE03F
ENDCHAR

STARTCHAR hyphen
ENCODING 173
SWIDTH 365 0
DWIDTH 12 0
BBX 10 3 1 6
BITMAP
FFC0
FFC0
FFC0
ENDCHAR

STARTCHAR afii10062
ENCODING 174
SWIDTH 750 0
DWIDTH 25 0
BBX 25 29 0 0
BITMAP
01C07000
01E07000
00F1F000
007FC000
00000000
00000000
FFC03F80
7F803F80
3E000E00
1F000C00
0F000800
07801800
07801000
03C03000
03E02000
01E06000
00F04000
00F0C000
00788000
003D8000
003D0000
001F0000
000E0000
000E0000
00040000
0E080000
0F180000
0FF00000
07E00000
ENDCHAR

STARTCHAR afii10145
ENCODING 175
SWIDTH 854 0
DWIDTH 28 0
BBX 27 28 1 -5
BITMAP
FFE0FFE0
3F803F80
1F001F00
0E000E00
0E000E00
0E000E00
0E000E00
0E000E00
0E000E00
0E000E00
0E000E00
0E000E00
0E000E00
0E000E00
0E000E00
0E000E00
0E000E00
0E000E00
0E000E00
0E000E00
1F001F00
3F803F80
FFFFFFE0
000E0000
000E0000
000E0000
000E0000
000E0000
ENDCHAR

STARTCHAR afii10017
ENCODING 176
SWIDTH 719 0
DWIDTH 24 0
BBX 24 23 0 0
BITMAP
007800
003C00
007C00
006C00
005E00
00CE00
008F00
018700
018780
010780
030380
0203C0
07FFC0
07FFE0
0401E0
0C00F0
0800F0
180070
180078
180078
3C007C
FE01FE
FF03FF
ENDCHAR

STARTCHAR afii10018
ENCODING 177
SWIDTH 656 0
DWIDTH 22 0
BBX 19 23 1 0
BITMAP
FFFF80
3F8F80
1F0380
0E0180
0E0080
0E00C0
0E0000
0E0000
0E0000
0E0000
0E0000
0FFE00
0E0F80
0E07C0
0E03C0
0E01E0
0E01E0
0E01E0
0E01E0
0E03E0
1F03C0
3F8F80
FFFE00
ENDCHAR

STARTCHAR afii10019
ENCODING 178
SWIDTH 688 0
DWIDTH 23 0
BBX 20 23 1 0
BITMAP
FFFF00
3E0FC0
1E03C0
0E01E0
0E01E0
0E01E0
0E01E0
0E01C0
0E03C0
0E0F00
0FF800
0E0F80
0E03C0
0E01E0
0E00F0
0E00F0
0E00F0
0E00F0
0E00F0
0E00E0
1F01E0
3F87C0
FFFF00
ENDCHAR

STARTCHAR afii10020
ENCODING 179
SWIDTH 635 0
DWIDTH 21 0
BBX 20 23 1 0
BITMAP
FFFFE0
3F83E0
1F00E0
0E0060
0E0070
0E0030
0E0000
0E0000
0E0000
0E0000
0E0000
0E0000
0E0000
0E0000
0E0000
0E0000
0E0000
0E0000
0E0000
0E0000
1F0000
3F8000
FFE000
ENDCHAR

STARTCHAR afii10021
ENCODING 180
SWIDTH 792 0
DWIDTH 26 0
BBX 26 28 0 -5
BITMAP
07FFFF80
01E0FE00
00C07C00
00C03800
00C03800
00803800
00803800
00803800
00803800
00803800
00803800
00803800
00803800
00803800
00803800
01803800
01803800
01003800
01003800
03003800
03007C00
0780FE00
FFFFFFC0
F80007C0
E00003C0
E00001C0
C00000C0
C00000C0
ENDCHAR

STARTCHAR afii10022
ENCODING 181
SWIDTH 677 0
DWIDTH 22 0
BBX 21 23 1 0
BITMAP
FFFFE0
3E01E0
1E0060
0E0060
0E0020
0E0000
0E0000
0E0080
0E0080
0E0180
0E0380
0FFF80
0E0380
0E0180
0E0080
0E0080
0E0000
0E0000
0E0018
0E0038
1F0070
3F81F0
FFFFF0
ENDCHAR

STARTCHAR afii10024
ENCODING 182
SWIDTH 1031 0
DWIDTH 34 0
BBX 33 23 1 0
BITMAP
780FFC0F00
7E07F03F00
7E03E03F00
0301C06000
0101C04000
0101C04000
0181C0C000
0081C08000
00C1C18000
0041C10000
0061C30000
003FFE0000
00F9CF8000
00F1C78000
01E1C3C000
03C1C1E000
0781C0F000
0781C0F000
0F01C07800
1E01C03C00
1C03E01E00
7C07F01F00
F80FFC0F80
ENDCHAR

STARTCHAR afii10025
ENCODING 183
SWIDTH 667 0
DWIDTH 22 0
BBX 20 23 1 0
BITMAP
0FFC00
7E0F00
7C0380
7803C0
7001E0
6001E0
2001E0
0001E0
0001C0
0003C0
000D00
01FE00
000780
0001E0
0001E0
0000F0
0000F0
F000F0
F800F0
F801E0
7C03C0
3E0F80
07FE00
ENDCHAR

STARTCHAR afii10026
ENCODING 184
SWIDTH 854 0
DWIDTH 28 0
BBX 27 23 1 0
BITMAP
FFE0FFE0
3F803F80
1F001F00
0E000E00
0E001E00
0E002E00
0E006E00
0E00CE00
0E018E00
0E030E00
0E020E00
0E040E00
0E080E00
0E180E00
0E300E00
0E600E00
0EC00E00
0E800E00
0F000E00
0E000E00
1F001F00
3F803F80
FFE0FFE0
ENDCHAR

STARTCHAR afii10027
ENCODING 185
SWIDTH 854 0
DWIDTH 28 0
BBX 27 29 1 0
BITMAP
01C07000
01E0F000
00F1E000
007FC000
00000000
00000000
FFE0FFE0
3F803F80
1F001F00
0E000E00
0E001E00
0E002E00
0E006E00
0E00CE00
0E018E00
0E030E00
0E020E00
0E040E00
0E080E00
0E180E00
0E300E00
0E600E00
0EC00E00
0E800E00
0F000E00
0E000E00
1F001F00
3F803F80
FFE0FFE0
ENDCHAR

STARTCHAR afii10028
ENCODING 186
SWIDTH 750 0
DWIDTH 25 0
BBX 24 23 1 0
BITMAP
FFE03C
3F807E
1F00FE
0E0088
0E0180
0E0100
0E0100
0E0300
0E0300
0E0200
0E0E00
0FFC00
0E1E00
0E0F00
0E0780
0E0780
0E03C0
0E01E0
0E00F0
0E00F0
1F0078
3F803C
FFE03F
ENDCHAR

STARTCHAR afii10029
ENCODING 187
SWIDTH 760 0
DWIDTH 25 0
BBX 24 23 0 0
BITMAP
07FFFF
01C0FC
0180F8
008070
008070
008070
008070
008070
008070
008070
008070
008070
008070
008070
008070
008070
008070
010070
010070
610070
F200F8
FC01FC
7803FF
ENDCHAR

STARTCHAR afii10030
ENCODING 188
SWIDTH 1010 0
DWIDTH 33 0
BBX 32 23 1 0
BITMAP
1F8001FC
0F8001F0
07C001E0
07C001E0
06C003E0
05E002E0
05E002E0
04E006E0
04F004F0
0C700CF0
0C7808F0
0C3818F0
083C1870
083C3070
081E2070
181E6078
180F6078
180FC078
1807C078
18078078
3803807C
7C0300FE
FF0303FF
ENDCHAR

STARTCHAR afii10031
ENCODING 189
SWIDTH 854 0
DWIDTH 28 0
BBX 27 23 1 0
BITMAP
FFE0FFE0
3F803F80
1F001F00
0E000E00
0E000E00
0E000E00
0E000E00
0E000E00
0E000E00
0E000E00
0FFFFE00
0FFFFE00
0E000E00
0E000E00
0E000E00
0E000E00
0E000E00
0E000E00
0E000E00
0E000E00
1F001F00
3F803F80
FFE0FFE0
ENDCHAR

STARTCHAR afii10032
ENCODING 190
SWIDTH 813 0
DWIDTH 27 0
BBX 23 23 2 0
BITMAP
01FF00
0787C0
0E01E0
1C00F0
380078
38007C
70003C
70003C
F0001E
F0001E
F0001E
F0001E
F0001E
F0001E
F8001E
78001C
78001C
7C0038
3C0038
1E0070
0F00E0
07C380
01FE00
ENDCHAR

STARTCHAR afii10033
ENCODING 191
SWIDTH 854 0
DWIDTH 28 0
BBX 27 23 0 0
BITMAP
FFFFFFE0
3F803F80
1F001F00
0E000E00
0E000E00
0E000E00
0E000E00
0E000E00
0E000E00
0E000E00
0E000E00
0E000E00
0E000E00
0E000E00
0E000E00
0E000E00
0E000E00
0E000E00
0E000E00
0E000E00
1F001F00
3F803F80
FFE0FFE0
ENDCHAR

STARTCHAR afii10034
ENCODING 192
SWIDTH 635 0
DWIDTH 21 0
BBX 19 23 1 0
BITMAP
FFFE00
3E0F80
1E03C0
0E03C0
0E01E0
0E01E0
0E01E0
0E01E0
0E01E0
0E03C0
0E0780
0E7F00
0E7C00
0E0000
0E0000
0E0000
0E0000
0E0000
0E0000
0E0000
1F0000
3F8000
FFE000
ENDCHAR

STARTCHAR afii10035
ENCODING 193
SWIDTH 781 0
DWIDTH 26 0
BBX 22 23 2 0
BITMAP
00FFC0
03C1F8
0F0078
1E0038
3C0018
380008
78000C
780000
F00000
F00000
F00000
F00000
F00000
F00000
F00000
780000
78000C
3C000C
3C000C
1E001C
0F803C
03E0F8
00FFC0
ENDCHAR

STARTCHAR afii10036
ENCODING 194
SWIDTH 760 0
DWIDTH 25 0
BBX 25 23 0 0
BITMAP
7FFFFF00
781C0F00
601C0300
E01C0180
C01C0180
001C0000
001C0000
001C0000
001C0000
001C0000
001C0000
001C0000
001C0000
001C0000
001C0000
001C0000
001C0000
001C0000
001C0000
001C0000
003E0000
007F0000
01FFC000
ENDCHAR

STARTCHAR afii10037
ENCODING 195
SWIDTH 750 0
DWIDTH 25 0
BBX 25 23 0 0
BITMAP
FFC03F80
7F803F80
3E000E00
1F000C00
0F000800
07801800
07801000
03C03000
03E02000
01E06000
00F04000
00F0C000
00788000
003D8000
003D0000
001F0000
000E0000
000E0000
00040000
0E080000
0F180000
0FF00000
07E00000
ENDCHAR

STARTCHAR afii10038
ENCODING 196
SWIDTH 974 0
DWIDTH 32 0
BBX 31 23 1 0
BITMAP
003FF800
0007C000
0007C000
00038000
01FFFF00
0F8383E0
1C038070
3803803C
7803803C
F003801E
F003801E
F003801E
F003801E
F003801E
7803803C
38038038
1C0380F0
0F8387C0
01FFFF00
00038000
0007C000
000FE000
003FF800
ENDCHAR

STARTCHAR afii10039
ENCODING 197
SWIDTH 781 0
DWIDTH 26 0
BBX 26 23 0 0
BITMAP
FFE0FF00
7FE0FF00
1F803800
0F803000
07C06000
03C04000
01E0C000
00F18000
00FB0000
007C0000
003E0000
001E0000
001F0000
00378000
0067C000
00C3E000
0181F000
0300F000
06007800
0E007C00
1E007E00
7F80FF80
7FC1FFC0
ENDCHAR

STARTCHAR afii10040
ENCODING 198
SWIDTH 854 0
DWIDTH 28 0
BBX 27 28 0 -5
BITMAP
FFE0FFE0
3F803F80
1F001F00
0E000E00
0E000E00
0E000E00
0E000E00
0E000E00
0E000E00
0E000E00
0E000E00
0E000E00
0E000E00
0E000E00
0E000E00
0E000E00
0E000E00
0E000E00
0E000E00
0E000E00
1F001F00
3F803F80
FFFFFFE0
000001E0
000000E0
00000060
00000020
00000020
ENDCHAR

STARTCHAR afii10041
ENCODING 199
SWIDTH 854 0
DWIDTH 28 0
BBX 27 23 1 0
BITMAP
FFE0FFE0
3F803F80
1F001F00
0E000E00
0E000E00
0E000E00
0E000E00
0E000E00
0E000E00
0E000E00
0F001E00
0F003E00
07806E00
03E1CE00
00FF0E00
00000E00
00000E00
00000E00
00000E00
00000E00
00001F00
00003F80
0000FFE0
ENDCHAR

STARTCHAR afii10042
ENCODING 200
SWIDTH 1052 0
DWIDTH 35 0
BBX 31 23 2 0
BITMAP
FF9FF3FE
FF0FE1FE
3E07C0F8
1C038070
1C038070
1C038070
1C038070
1C038070
1C038070
1C038070
1C038070
1C038070
1C038070
1C038070
1C038070
1C038070
1C038070
1C038070
1C038070
1C038070
3E07C0F8
7E0FE1FC
FFFFFFFE
ENDCHAR

STARTCHAR afii10043
ENCODING 201
SWIDTH 1052 0
DWIDTH 35 0
BBX 32 28 2 -5
BITMAP
FF9FF3FE
FF0FE1FE
3E07C0F8
1C038070
1C038070
1C038070
1C038070
1C038070
1C038070
1C038070
1C038070
1C038070
1C038070
1C038070
1C038070
1C038070
1C038070
1C038070
1C038070
1C038070
3E07C0F8
7E0FE1FC
FFFFFFFF
0000001F
00000007
00000007
00000003
00000003
ENDCHAR

STARTCHAR afii10044
ENCODING 202
SWIDTH 775 0
DWIDTH 26 0
BBX 24 23 1 0
BITMAP
7FFF00
F87C00
F07800
E07000
C07000
807000
007000
007000
007000
007000
007000
007FF0
00707C
00701E
00701E
00700F
00700F
00700F
00700F
00701F
00F81E
01FC7C
07FFF0
ENDCHAR

STARTCHAR afii10045
ENCODING 203
SWIDTH 1031 0
DWIDTH 34 0
BBX 32 23 1 0
BITMAP
FFE007FF
3F8001FC
1F0000F8
0E000070
0E000070
0E000070
0E000070
0E000070
0E000070
0E000070
0E000070
0FFE0070
0E0F8070
0E03C070
0E03C070
0E01E070
0E01E070
0E01E070
0E01E070
0E03E070
1F03C0F8
3F8F81FC
FFFE07FF
ENDCHAR

STARTCHAR afii10046
ENCODING 204
SWIDTH 632 0
DWIDTH 21 0
BBX 19 23 1 0
BITMAP
FFE000
3F8000
1F0000
0E0000
0E0000
0E0000
0E0000
0E0000
0E0000
0E0000
0E0000
0FFE00
0E0F80
0E03C0
0E03C0
0E01E0
0E01E0
0E01E0
0E01E0
0E03E0
1F03C0
3F8F80
FFFE00
ENDCHAR

STARTCHAR afii10047
ENCODING 205
SWIDTH 719 0
DWIDTH 24 0
BBX 22 23 1 0
BITMAP
1FF800
7E1F00
700380
6001C0
E000E0
C000F0
800070
000078
000078
000038
00003C
01FFFC
00003C
00003C
000078
000078
000078
4000F0
E000F0
F001E0
F807C0
3E1F00
0FFC00
ENDCHAR

STARTCHAR afii10048
ENCODING 206
SWIDTH 1177 0
DWIDTH 39 0
BBX 37 23 0 0
BITMAP
FFE007FC00
3F801E1F00
1F00780780
0E00E003C0
0E00E001E0
0E01C001F0
0E03C000F0
0E03C000F0
0E038000F8
0E03800078
0FFF800078
0FFF800078
0E07C00078
0E07C00078
0E03C00078
0E03C00070
0E03E000F0
0E01E000E0
0E01F000E0
0E00F801C0
1F007C0380
3F801F0E00
FFE007F800
ENDCHAR

STARTCHAR afii10049
ENCODING 207
SWIDTH 740 0
DWIDTH 24 0
BBX 24 23 0 0
BITMAP
00FFFF
03F07C
07C078
078070
0F0070
0F0070
0F0070
0F0070
070070
038070
01E070
007FF0
003C70
007870
00F070
01E070
03E070
07C070
0F8070
0F0070
1E00F8
7E01FC
FC07FF
ENDCHAR

STARTCHAR afii10065
ENCODING 208
SWIDTH 479 0
DWIDTH 16 0
BBX 14 15 1 0
BITMAP
1FC0
30E0
6070
7070
7070
2070
01F0
0F70
3870
7070
E070
E070
F1F4
7F7C
3E38
ENDCHAR

STARTCHAR afii10066
ENCODING 209
SWIDTH 542 0
DWIDTH 18 0
BBX 15 23 2 0
BITMAP
0006
0FFC
1FFC
3FF0
7800
6000
4000
C000
8FE0
9870
B038
B01C
E01E
E00E
E00E
E00E
E00E
F00E
700C
701C
3818
1C70
0FC0
ENDCHAR

STARTCHAR afii10067
ENCODING 210
SWIDTH 552 0
DWIDTH 18 0
BBX 16 15 1 0
BITMAP
FFFC
7C1E
3807
3807
3807
380E
381C
3FF0
381E
380F
3807
3807
3807
7C1E
FFF8
ENDCHAR

STARTCHAR afii10068
ENCODING 211
SWIDTH 438 0
DWIDTH 14 0
BBX 13 15 1 0
BITMAP
FFF8
7C38
3818
3808
3800
3800
3800
3800
3800
3800
3800
3800
3800
FE00
FF00
ENDCHAR

STARTCHAR afii10069
ENCODING 212
SWIDTH 542 0
DWIDTH 18 0
BBX 17 20 0 -5
BITMAP
1FFF80
0E1F00
040E00
040E00
040E00
040E00
040E00
040E00
040E00
0C0E00
080E00
080E00
180E00
381F00
FFFF80
F00380
C00180
C00080
800080
800080
ENDCHAR

STARTCHAR afii10070
ENCODING 213
SWIDTH 469 0
DWIDTH 15 0
BBX 13 15 1 0
BITMAP
0FC0
18E0
3070
2038
6038
7FF8
6000
E000
6000
7000
7000
7C08
3FF8
1FE0
0780
ENDCHAR

STARTCHAR afii10072
ENCODING 214
SWIDTH 854 0
DWIDTH 28 0
BBX 27 15 1 0
BITMAP
703F81C0
F81F03E0
7C0E07C0
040E0400
040E0400
040E0400
060E0C00
03FFF800
078E3C00
0E0E0E00
0E0E0E00
1C0E0700
380E0380
783F83C0
F03F81E0
ENDCHAR

STARTCHAR afii10073
ENCODING 215
SWIDTH 469 0
DWIDTH 15 0
BBX 13 15 1 0
BITMAP
1FE0
F8F0
7038
6038
6038
0038
00F0
0780
0070
0038
0038
E038
E078
F0F0
3FC0
ENDCHAR

STARTCHAR afii10074
ENCODING 216
SWIDTH 583 0
DWIDTH 19 0
BBX 17 15 1 0
BITMAP
FE3F80
FE1F80
380E00
381E00
383600
386E00
38CE00
388E00
390E00
3B0E00
3E0E00
3C0E00
380E00
FE3F80
FE3F80
ENDCHAR

STARTCHAR afii10075
ENCODING 217
SWIDTH 583 0
DWIDTH 19 0
BBX 17 22 1 0
BITMAP
080800
1C1C00
1C1C00
0E1800
03E000
000000
000000
FE3F80
FE1F80
380E00
381E00
383600
386E00
38CE00
388E00
390E00
3B0E00
3E0E00
3C0E00
380E00
FE3F80
FE3F80
ENDCHAR

STARTCHAR afii10076
ENCODING 218
SWIDTH 573 0
DWIDTH 19 0
BBX 17 15 1 0
BITMAP
FE0700
FC0F80
380F00
381800
381000
381000
383000
3FE000
387000
383800
381C00
381C00
380E00
FE0F00
FE0780
ENDCHAR

STARTCHAR afii10077
ENCODING 219
SWIDTH 573 0
DWIDTH 19 0
BBX 18 15 0 0
BITMAP
1FFFC0
070F80
020700
020700
020700
020700
020700
020700
020700
020700
020700
020700
E40700
7C1FC0
781FC0
ENDCHAR

STARTCHAR afii10078
ENCODING 220
SWIDTH 625 0
DWIDTH 21 0
BBX 20 15 0 0
BITMAP
3F07E0
1B07C0
0B0D80
1B0B80
1B8B80
138980
1391C0
11D1C0
11D1C0
11F1C0
30E1C0
20E0E0
20E0E0
F043F0
F843F0
ENDCHAR

STARTCHAR afii10079
ENCODING 221
SWIDTH 563 0
DWIDTH 19 0
BBX 17 15 1 0
BITMAP
FE3F80
FE3F80
380E00
380E00
380E00
380E00
380E00
3FFE00
380E00
380E00
380E00
380E00
380E00
FE3F80
FE3F80
ENDCHAR

STARTCHAR afii10080
ENCODING 222
SWIDTH 542 0
DWIDTH 18 0
BBX 15 15 1 0
BITMAP
0FE0
1870
3038
701C
E01E
E00E
E00E
E00E
E00E
F00E
700C
700C
3818
1C30
07E0
ENDCHAR

STARTCHAR afii10081
ENCODING 223
SWIDTH 573 0
DWIDTH 19 0
BBX 17 15 1 0
BITMAP
FFFF80
7C1F00
380E00
380E00
380E00
380E00
380E00
380E00
380E00
380E00
380E00
380E00
380E00
FE3F80
FE3F80
ENDCHAR

STARTCHAR afii10082
ENCODING 224
SWIDTH 562 0
DWIDTH 19 0
BBX 16 21 1 -6
BITMAP
19F8
FBFC
FE3E
380E
380F
3807
3807
3807
3807
3807
3806
380E
3C0C
3E38
3BE0
3800
3800
3800
3800
7C00
FF00
ENDCHAR

STARTCHAR afii10083
ENCODING 225
SWIDTH 469 0
DWIDTH 15 0
BBX 13 15 1 0
BITMAP
0FF0
1C78
3038
7018
6000
E000
E000
E000
E000
F000
7008
7C18
3FF0
1FE0
0780
ENDCHAR

STARTCHAR afii10084
ENCODING 226
SWIDTH 458 0
DWIDTH 15 0
BBX 13 15 1 0
BITMAP
FFF8
E738
C718
8708
0700
0700
0700
0700
0700
0700
0700
0700
0700
1FC0
3FE0
ENDCHAR

STARTCHAR afii10085
ENCODING 227
SWIDTH 479 0
DWIDTH 16 0
BBX 16 21 0 -6
BITMAP
FE3F
3C0E
380C
1C0C
1C08
0E18
0E10
0E10
0730
0720
03E0
03C0
01C0
01C0
0080
0080
0100
0100
7300
7E00
3C00
ENDCHAR

STARTCHAR afii10086
ENCODING 228
SWIDTH 750 0
DWIDTH 25 0
BBX 22 29 2 -6
BITMAP
003000
01F000
01F000
007000
007000
007000
007000
007000
1F77E0
38FC70
707038
607038
E0701C
E0701C
E0701C
E0701C
E0701C
E0701C
E0701C
707038
707038
39FCF0
1F77C0
007000
007000
007000
007000
00F800
01FE00
ENDCHAR

STARTCHAR afii10087
ENCODING 229
SWIDTH 500 0
DWIDTH 17 0
BBX 16 15 1 0
BITMAP
FE7E
7C3E
3818
1C30
1E60
0FC0
0780
03C0
03C0
04E0
0870
1878
303C
F87E
FCFF
ENDCHAR

STARTCHAR afii10088
ENCODING 230
SWIDTH 573 0
DWIDTH 19 0
BBX 17 19 1 -4
BITMAP
FE3F80
FE3F80
380E00
380E00
380E00
380E00
380E00
380E00
380E00
380E00
380E00
380E00
380E00
7C1F00
FFFF80
000380
000180
000080
000080
ENDCHAR

STARTCHAR afii10089
ENCODING 231
SWIDTH 573 0
DWIDTH 19 0
BBX 17 15 1 0
BITMAP
FE3F80
FE3F80
380E00
380E00
380E00
380E00
380E00
381E00
1C7600
0FCE00
000E00
000E00
000E00
003F80
003F80
ENDCHAR

STARTCHAR afii10090
ENCODING 232
SWIDTH 854 0
DWIDTH 28 0
BBX 27 15 1 0
BITMAP
FE3F8FE0
FE3F07C0
380E0380
380E0380
380E0380
380E0380
380E0380
380E0380
380E0380
380E0380
380E0380
380E0380
380E0380
7C1F07C0
FFFFFFE0
ENDCHAR

STARTCHAR afii10091
ENCODING 233
SWIDTH 854 0
DWIDTH 28 0
BBX 27 20 1 -5
BITMAP
FE3F8FE0
FE3F07C0
380E0380
380E0380
380E0380
380E0380
380E0380
380E0380
380E0380
380E0380
380E0380
380E0380
380E0380
7C1F0780
FFFFFFE0
000000E0
00000060
00000020
00000020
00000020
ENDCHAR

STARTCHAR afii10092
ENCODING 234
SWIDTH 638 0
DWIDTH 21 0
BBX 19 15 0 0
BITMAP
FFE000
E3C000
C38000
838000
038000
038000
038000
03FF80
0383C0
0380E0
0380E0
0380E0
0380E0
0783C0
0FFF80
ENDCHAR

STARTCHAR afii10093
ENCODING 235
SWIDTH 792 0
DWIDTH 26 0
BBX 24 15 1 0
BITMAP
FE007F
FE007F
38001C
38001C
38001C
38001C
38001C
3FF81C
383C1C
380E1C
380E1C
380E1C
380E1C
783C3E
FFF87F
ENDCHAR

STARTCHAR afii10094
ENCODING 236
SWIDTH 485 0
DWIDTH 16 0
BBX 14 15 1 0
BITMAP
FF00
FE00
3800
3800
3800
3800
3800
3FF0
3878
383C
381C
381C
383C
7C78
FFE0
ENDCHAR

STARTCHAR afii10095
ENCODING 237
SWIDTH 490 0
DWIDTH 16 0
BBX 14 15 1 0
BITMAP
1F80
70E0
E070
6038
4038
0038
0038
07FC
0038
0038
0038
E038
F070
78E0
3F80
ENDCHAR

STARTCHAR afii10096
ENCODING 238
SWIDTH 813 0
DWIDTH 27 0
BBX 24 15 1 0
BITMAP
FE07F0
FE0C38
38181C
38380E
38300E
383007
387007
3FF007
387807
383807
383806
383C06
381C0C
FE0E18
FE03F0
ENDCHAR

STARTCHAR afii10097
ENCODING 239
SWIDTH 563 0
DWIDTH 19 0
BBX 18 15 1 0
BITMAP
0FFFC0
1E1F00
380E00
380E00
380E00
380E00
1C0E00
03FE00
078E00
0E0E00
0E0E00
1C0E00
3C0E00
783F80
F07FC0
ENDCHAR

STARTCHAR afii61352
ENCODING 240
SWIDTH 1031 0
DWIDTH 34 0
BBX 33 23 0 0
BITMAP
1F800F8000
0FC01F8000
07C0118000
06E0300000
02F0300000
02F0300000
0278303C00
027830C600
023C30C300
021E318380
021E318380
020F318380
0207118380
020791C380
0203D0C300
0203D0E600
0201F03C00
0200F00000
0200F00000
0600700000
7C0071FF00
FC0031FF00
7000100000
ENDCHAR

STARTCHAR afii10071
ENCODING 241
SWIDTH 469 0
DWIDTH 15 0
BBX 13 21 1 0
BITMAP
38E0
38E0
38E0
0000
0000
0000
0FC0
38E0
6070
6078
C038
FFF8
C000
C000
E000
E000
F000
7818
7FF0
1FE0
0780
ENDCHAR

STARTCHAR afii10099
ENCODING 242
SWIDTH 513 0
DWIDTH 17 0
BBX 15 29 1 -6
BITMAP
1800
7800
F800
3800
3800
FFF8
3800
3800
3800
39F0
3BF8
3E1C
381C
380E
380E
380E
380E
380E
380E
380C
380C
FE1C
FF18
0018
0030
0030
0060
00C0
0180
ENDCHAR

STARTCHAR afii10100
ENCODING 243
SWIDTH 458 0
DWIDTH 15 0
BBX 13 22 1 0
BITMAP
03C0
0380
0300
0600
0000
0000
0000
FFF8
7C38
3818
3808
3800
3800
3800
3800
3800
3800
3800
3800
3800
FE00
FF00
ENDCHAR

STARTCHAR afii10101
ENCODING 244
SWIDTH 490 0
DWIDTH 16 0
BBX 13 15 2 0
BITMAP
0FC0
3870
7038
6030
E010
E000
E000
FF00
E000
E000
E000
E038
7078
38F0
0FE0
ENDCHAR

STARTCHAR afii10102
ENCODING 245
SWIDTH 396 0
DWIDTH 13 0
BBX 10 15 2 0
BITMAP
3F00
6380
C180
C080
E080
F000
7E00
3F00
0FC0
03C0
C0C0
C0C0
C0C0
E180
7F00
ENDCHAR

STARTCHAR afii10103
ENCODING 246
SWIDTH 271 0
DWIDTH 9 0
BBX 7 23 1 0
BITMAP
38
38
38
10
00
00
00
00
18
F8
F8
38
38
38
38
38
38
38
38
38
38
7C
FE
ENDCHAR

STARTCHAR afii10104
ENCODING 247
SWIDTH 271 0
DWIDTH 9 0
BBX 9 21 0 0
BITMAP
E380
E380
E380
0000
0000
0000
0C00
7C00
7C00
1C00
1C00
1C00
1C00
1C00
1C00
1C00
1C00
1C00
1C00
3E00
7F00
ENDCHAR

STARTCHAR afii10105
ENCODING 248
SWIDTH 260 0
DWIDTH 9 0
BBX 6 30 0 -7
BITMAP
1C
1C
1C
08
00
00
00
00
0C
7C
7C
3C
1C
1C
1C
1C
1C
1C
1C
1C
1C
1C
1C
1C
18
38
30
60
C0
40
ENDCHAR

STARTCHAR afii10106
ENCODING 249
SWIDTH 831 0
DWIDTH 27 0
BBX 25 15 1 0
BITMAP
3FFF8000
0F1F0000
040E0000
040E0000
040E0000
040E0000
040E0000
040FFE00
040E0F00
040E0780
040E0380
040E0380
EC0E0780
F81F0F00
F03FFC00
ENDCHAR

STARTCHAR afii10107
ENCODING 250
SWIDTH 814 0
DWIDTH 27 0
BBX 24 15 1 0
BITMAP
FE7F00
7E3E00
381C00
381C00
381C00
381C00
381C00
3FFFFC
381C0E
381C07
381C07
381C07
381C07
7C3E1E
FE7FF8
ENDCHAR

STARTCHAR afii10108
ENCODING 251
SWIDTH 573 0
DWIDTH 19 0
BBX 17 23 1 0
BITMAP
380000
F80000
780000
380000
380000
380000
380000
FFFC00
380000
380000
380000
39F800
3BFC00
3E1E00
380E00
380E00
380E00
380E00
380E00
380E00
380E00
FE3F80
FF3F80
ENDCHAR

STARTCHAR afii10109
ENCODING 252
SWIDTH 573 0
DWIDTH 19 0
BBX 17 22 1 0
BITMAP
007000
00E000
00E000
00C000
018000
000000
000000
FE0700
FC0F80
380F00
381800
381000
381000
383000
3FE000
387000
383800
381C00
381C00
380E00
FE0F00
FE0780
ENDCHAR

STARTCHAR section
ENCODING 253
SWIDTH 427 0
DWIDTH 14 0
BBX 11 29 1 -6
BITMAP
0FC0
13E0
30E0
7000
5000
D800
D800
CC00
CC00
C600
4300
4300
6180
6180
30C0
30C0
1860
1860
0C60
0620
0620
0320
0320
01A0
00A0
00E0
70C0
7980
3F00
ENDCHAR

STARTCHAR afii10110
ENCODING 254
SWIDTH 479 0
DWIDTH 16 0
BBX 16 29 1 -6
BITMAP
0808
1C1C
1C1C
0E38
07F0
0000
0000
0000
FE3F
3C0E
380C
1C0C
1C08
0E18
0E10
0E10
0730
0720
03E0
03C0
01C0
01C0
0080
0080
0100
0100
7300
7E00
3C00
ENDCHAR

STARTCHAR afii10193
ENCODING 255
SWIDTH 573 0
DWIDTH 19 0
BBX 17 19 1 -4
BITMAP
FE3F80
7E1F00
380E00
380E00
380E00
380E00
380E00
380E00
380E00
380E00
380E00
380E00
380E00
FFFF80
FFFF80
01C000
01C000
01C000
01C000
ENDCHAR
ENDFONT
